<svg preserveAspectRatio="none" overflow="visible" style="display: block;" width="61" height="82.9766" viewBox="0 0 61 82.9766" fill="none" xmlns="http://www.w3.org/2000/svg">
<g id="Frame 322">
<g id="Frame 1000004383">
<path id="Polygon 2" d="M17 11L22 20.5L17 30L12 20.5L17 11Z" fill="#D3D3E0"/>
<g id="Frame 1000004382">
<path id="Polygon 2_2" d="M29.5 6L37 20.5L29.5 35L22 20.5L29.5 6Z" fill="#D3D3E0"/>
</g>
<g id="Frame 1000004383_2">
<path id="Polygon 2_3" d="M42.5 10L48 20.5L42.5 31L37 20.5L42.5 10Z" fill="#D3D3E0"/>
</g>
</g>
<path id="Vector 6 (Stroke)" d="M60.8149 29.0332L30.1548 51.4941L0.185059 29.0166L3.18506 25.0166L30.189 45.2695L57.8599 25L60.8149 29.0332Z" fill="#D3D3E0"/>
<path id="Vector 5 (Stroke)" d="M60.8149 39.5273L30.1548 61.9883L0.185059 39.5107L3.18506 35.5107L30.189 55.7637L57.8599 35.4941L60.8149 39.5273Z" fill="#D3D3E0"/>
<path id="Vector 4 (Stroke)" d="M60.8149 50.0215L30.1548 72.4824L0.185059 50.0049L3.18506 46.0049L30.189 66.2578L57.8599 45.9883L60.8149 50.0215Z" fill="#D3D3E0"/>
<path id="Vector 3 (Stroke)" d="M60.8149 60.5156L30.1548 82.9766L0.185059 60.499L3.18506 56.499L30.189 76.752L57.8599 56.4824L60.8149 60.5156Z" fill="#D3D3E0"/>
</g>
</svg>
